<?xml version="1.0" encoding="utf-8"?>
<!-- Generator: Adobe Illustrator 21.0.0, SVG Export Plug-In . SVG Version: 6.00 Build 0)  -->
<svg version="1.1" id="Layer_1" xmlns="http://www.w3.org/2000/svg" xmlns:xlink="http://www.w3.org/1999/xlink" x="0px" y="0px"
	 viewBox="0 0 100 100" style="enable-background:new 0 0 100 100;" xml:space="preserve">
<style type="text/css">
	.st0{fill:#FFFFFF;}
</style>
<g>
	<g>
		<g>
			<path class="st0" d="M60.3,82.7H37.5c-4.5,0-8.1-3.6-8.1-8.1V30.3c0-4.5,3.6-8.1,8.1-8.1h22.8c4.5,0,8.1,3.6,8.1,8.1v44.3
				C68.4,79.1,64.8,82.7,60.3,82.7z M37.5,27.2c-1.7,0-3.1,1.4-3.1,3.1v44.3c0,1.7,1.4,3.1,3.1,3.1h22.8c1.7,0,3.1-1.4,3.1-3.1V30.3
				c0-1.7-1.4-3.1-3.1-3.1C60.3,27.2,37.5,27.2,37.5,27.2z"/>
		</g>
		<g>
			<g>
				<path class="st0" d="M56.9,39.8h-2.7c-1.4,0-2.5-1.1-2.5-2.5l0,0c0-1.4,1.1-2.5,2.5-2.5h2.7c1.4,0,2.5,1.1,2.5,2.5l0,0
					C59.4,38.6,58.3,39.8,56.9,39.8z"/>
			</g>
			<g>
				<path class="st0" d="M57,59.9H40.9c-1.4,0-2.5-1.1-2.5-2.5l0,0c0-1.4,1.1-2.5,2.5-2.5H57c1.4,0,2.5,1.1,2.5,2.5l0,0
					C59.5,58.8,58.4,59.9,57,59.9z"/>
			</g>
			<line class="st0" x1="57" y1="70.2" x2="40.9" y2="70.2"/>
			<g>
				<path class="st0" d="M57,59.9H40.9c-1.4,0-2.5-1.1-2.5-2.5l0,0c0-1.4,1.1-2.5,2.5-2.5H57c1.4,0,2.5,1.1,2.5,2.5l0,0
					C59.5,58.8,58.4,59.9,57,59.9z"/>
			</g>
			<g>
				<path class="st0" d="M57,70.2H40.9c-1.4,0-2.5-1.1-2.5-2.5l0,0c0-1.4,1.1-2.5,2.5-2.5H57c1.4,0,2.5,1.1,2.5,2.5l0,0
					C59.5,69,58.4,70.2,57,70.2z"/>
			</g>
		</g>
	</g>
	<path class="st0" d="M76.6,48"/>
	<circle class="st0" cx="97" cy="33.6" r="3"/>
	<g>
		<path class="st0" d="M88.8,44.6c-1.7,1.8-3.7,3.1-6.1,4.1c-1.7,0.9-4.3,1.3-6.3,1.4c-1.6,0.1-2.8,1.4-2.8,3v0.1
			c0,1.7,1.5,3.1,3.2,3c2.3-0.2,5.5-0.7,8.2-2c3.1-1.4,5.7-3.2,8-5.4c1.2-1.1,2.7-3.1,3.6-4.9c0.8-1.6,0.3-3.6-1.5-4.3l0,0
			c-1.3-0.5-2.8,0-3.5,1.3C90.8,42.2,89.9,43.5,88.8,44.6z"/>
		<path class="st0" d="M95.8,25.9L95.8,25.9c2.1,0,3.6-2.1,2.8-4.1c-0.1-0.2-0.1-0.3-0.2-0.5c-1.3-3.1-3.1-5.7-5.4-7.9s-5-4-8-5.3
			c-3.1-1.3-6.3-2-9.7-2c-0.9,0-1.8,0-2.5,0.1c-0.8,0.1-1.6,0.2-2.5,0.4c-0.9,0.2-1.7,0.4-2.5,0.7c-0.9,0.3-1.7,0.6-2.5,1
			c-1.4-1.4-2.9-2.6-4.4-3.7c-1.4-1-3-1.8-4.6-2.4c-1.7-0.7-3.4-1.2-5.2-1.6C49.3,0.2,47.5,0,45.7,0c-2.9,0-5.7,0.4-8.3,1.3
			c-2.7,0.9-5.1,2.1-7.4,3.6c-2.2,1.6-4.2,3.4-6,5.6s-3.2,4.6-4.2,7.4c-2.6-0.1-5.1,0.3-7.5,1.3s-4.5,2.4-6.4,4.1
			C4,25,2.6,27.1,1.6,29.4C0.5,31.8,0,34.3,0,37c0,2.6,0.5,5.1,1.5,7.4s2.4,4.4,4.1,6.1c1.8,1.7,3.8,3.1,6.2,4.1s4.8,1.6,7.4,1.6
			h1.2c1.6,0,3-1.1,3.2-2.7c0.2-1.8-1.2-3.4-3-3.4h-1.3c-1.8,0-3.6-0.3-5.2-1s-3-1.6-4.2-2.8s-2.1-2.6-2.8-4.2C6.4,40.5,6,38.8,6,37
			s0.4-3.6,1.1-5.2c0.7-1.6,1.7-3,2.8-4.2s2.6-2.1,4.2-2.8c1.6-0.7,3.4-1.1,5.2-1.1c0.1,0,0.3,0,0.5,0s0.4,0,0.6,0s0.4,0,0.5,0.1
			s0.3,0.1,0.6,0.1l2.5,0.4l0.8-2.5c0.7-2.4,1.7-4.5,3-6.5s3-3.6,4.8-5c1.8-1.4,3.9-2.4,6.2-3.1s4.6-1.1,7-1.1
			c1.7,0,3.3,0.2,4.8,0.5c1.4,0.3,3,0.8,4.4,1.5c1.4,0.6,2.7,1.4,3.9,2.4s2.4,2.1,3.4,3.2l1.6,1.8l2.2-1.2c0.8-0.4,1.5-0.7,2.3-1.1
			c0.7-0.3,1.5-0.6,2.3-0.8s1.6-0.3,2.4-0.4c0.8-0.1,1.6-0.1,2.4-0.1c2.6,0,5.1,0.5,7.4,1.5s4.4,2.4,6.1,4.1
			c1.7,1.8,3.1,3.8,4.1,6.1c0.1,0.1,0.1,0.3,0.2,0.4C93.6,25.1,94.6,25.9,95.8,25.9z"/>
	</g>
</g>
</svg>
