<?xml version="1.0" encoding="utf-8"?>
<!-- Generator: Adobe Illustrator 21.0.0, SVG Export Plug-In . SVG Version: 6.00 Build 0)  -->
<svg version="1.1" id="Layer_1" xmlns="http://www.w3.org/2000/svg" xmlns:xlink="http://www.w3.org/1999/xlink" x="0px" y="0px"
	 viewBox="0 0 100 100" style="enable-background:new 0 0 100 100;" xml:space="preserve">
<style type="text/css">
	.st0{fill:#FFFFFF;}
</style>
<g>
	<g>
		<path class="st0" d="M26.1,71.2c-9.5,0-17.2-7.7-17.2-17.2s7.7-17.2,17.2-17.2S43.3,44.5,43.3,54S35.6,71.2,26.1,71.2z M26.1,41.8
			c-6.7,0-12.2,5.5-12.2,12.2s5.5,12.2,12.2,12.2S38.3,60.7,38.3,54S32.8,41.8,26.1,41.8z"/>
	</g>
	<path class="st0" d="M87.3,68.9H59.2c-1.5,0-2.6,1.2-2.6,2.6l0,0c0,1.5,1.2,2.6,2.6,2.6h1.7v13c0,1.4,1,2.6,2.4,2.8
		c1.6,0.2,2.9-1.1,2.9-2.6V74.2H70L78.4,87c0.7,1.1,2.2,1.7,3.5,1c1.4-0.7,1.8-2.5,1-3.7l-6.5-10.1h11.1c1.5,0,2.8-1.3,2.6-2.9
		C89.9,69.9,88.7,68.9,87.3,68.9z"/>
	<path class="st0" d="M51,86.9c-2.2-11.8-12.6-20.7-25-20.7c-8.7,0-16.4,4.4-21,11.1c-1.1,1.7,0.1,3.9,2.1,3.9l0,0
		c0.8,0,1.6-0.4,2.1-1.1c3.7-5.4,9.8-8.9,16.8-8.9c9.9,0,18.2,7.2,20,16.6c0.3,1.4,1.6,2.4,3.1,2.1C50.5,89.6,51.3,88.2,51,86.9z"/>
	<circle class="st0" cx="3.1" cy="85.5" r="3"/>
	<g>
		<path class="st0" d="M26.1,90L26.1,90c-1.4,0-2.5-1.1-2.5-2.5v-7.2c0-1.4,1.1-2.5,2.5-2.5l0,0c1.4,0,2.5,1.1,2.5,2.5v7.2
			C28.6,88.9,27.5,90,26.1,90z"/>
	</g>
	<g>
		<path class="st0" d="M97.3,41.4L97.3,41.4c1.5,0,2.6-1.2,2.6-2.6V15c0-2.5-2-4.5-4.5-4.5H62.8V2.7c0-1.4-1-2.6-2.4-2.8
			c-1.6-0.2-2.9,1.1-2.9,2.6v7.9H24.9c-2.5,0-4.5,2-4.5,4.5v11.6c0,1.5,1.2,2.6,2.6,2.6l0,0c1.5,0,2.6-1.2,2.6-2.6V15.8h68.9v22.9
			C94.6,40.2,95.8,41.4,97.3,41.4z"/>
		<path class="st0" d="M94.6,55.8v2.4H52.5c-1.5,0-2.6,1.2-2.6,2.6l0,0c0,1.5,1.2,2.6,2.6,2.6h42.9c2.5,0,4.5-2,4.5-4.5v-3.1
			c0-1.5-1.2-2.6-2.6-2.6l0,0C95.8,53.2,94.6,54.4,94.6,55.8z"/>
	</g>
	<circle class="st0" cx="97.3" cy="47.5" r="2.6"/>
	<g>
		<path class="st0" d="M78.2,36.4v10.7c0,1.4,1.1,2.5,2.5,2.5l0,0c1.4,0,2.5-1.1,2.5-2.5V36.4c0-1.4-1.1-2.5-2.5-2.5l0,0
			C79.4,33.9,78.2,35,78.2,36.4z"/>
	</g>
	<g>
		<path class="st0" d="M66.2,25.2v22c0,1.4,1.1,2.5,2.5,2.5l0,0c1.4,0,2.5-1.1,2.5-2.5v-22c0-1.4-1.1-2.5-2.5-2.5l0,0
			C67.3,22.6,66.2,23.8,66.2,25.2z"/>
	</g>
	<g>
		<path class="st0" d="M54.1,28.6v18.6c0,1.4,1.1,2.5,2.5,2.5l0,0c1.4,0,2.5-1.1,2.5-2.5V28.6c0-1.4-1.1-2.5-2.5-2.5l0,0
			C55.2,26,54.1,27.2,54.1,28.6z"/>
	</g>
</g>
</svg>
