<?xml version="1.0" encoding="utf-8"?>
<!-- Generator: Adobe Illustrator 21.0.0, SVG Export Plug-In . SVG Version: 6.00 Build 0)  -->
<svg version="1.1" id="Layer_1" xmlns="http://www.w3.org/2000/svg" xmlns:xlink="http://www.w3.org/1999/xlink" x="0px" y="0px"
	 viewBox="0 0 100 100" style="enable-background:new 0 0 100 100;" xml:space="preserve">
<style type="text/css">
	.st0{fill:#FFFFFF;}
</style>
<g>
	<path class="st0" d="M72.5,0.2c-4.5,0-8.2,3.7-8.2,8.2s3.7,8.2,8.2,8.2s8.2-3.7,8.2-8.2S77.1,0.2,72.5,0.2z M72.5,11.8
		c-1.9,0-3.4-1.5-3.4-3.4S70.7,5,72.5,5c1.9,0,3.4,1.5,3.4,3.4S74.4,11.8,72.5,11.8z"/>
	<path class="st0" d="M84.1,37.2v13.6c0,1.2,1,2.2,2.2,2.2h11.4c1.2,0,2.2-1,2.2-2.2V39.4c0-1.2-1-2.2-2.2-2.2H84.1z M95,48.1h-5.9
		v-5.9H95V48.1z"/>
	<path class="st0" d="M22.4,58.6c-0.5-0.5-1.2-0.8-2-0.8c-0.7,0-1.4,0.3-2,0.8l-8.8,8.7l3.9,3.9l8.8-8.7c0.5-0.5,0.8-1.2,0.8-2
		C23.2,59.8,22.9,59.1,22.4,58.6z"/>
	<path class="st0" d="M84.6,41.2l4-3.9c-6.5-5.1-14.4-7.9-22.7-7.9c-3.8,0-7.6,0.6-11.3,1.8l-1.2,0.4l0.9-0.9l4.2-4.1
		c1.1-1.1,1.2-2.8,0.3-3.9c-0.5-0.7-1.3-1-2.2-1c-0.7,0-1.4,0.3-2,0.8L44.3,32.7l-0.2,0.2L44,32.7c-1.2-0.5-2.4-0.8-3.6-0.8
		c-0.6,0-1.2,0.1-1.8,0.2c-3.3,0.7-6,3.4-6.7,6.7c-0.4,1.8-0.2,3.7,0.6,5.4l0.1,0.2l-0.2,0.2l-7.6,7.6c-0.5,0.5-0.8,1.2-0.8,2
		c0,0.7,0.3,1.4,0.8,2c0.5,0.5,1.2,0.8,2,0.8c0.7,0,1.4-0.3,2-0.8l1.6-1.6l0.9-0.9l-0.4,1.2c-1.2,3.7-1.8,7.5-1.8,11.3
		c0,8,2.5,15.6,7.3,22l4-3.9c-3.8-5.3-5.8-11.5-5.8-18c0-6,1.7-11.8,4.9-16.8l0.1-0.2h0.2H40c0.1,0,0.2,0,0.4,0
		c2.3,0,4.5-0.9,6.1-2.5S49,43,49,40.7c0-0.1,0-0.2,0-0.3v-0.2V40l0.2-0.1c5-3.2,10.8-4.9,16.7-4.9C72.7,34.9,79.1,37.1,84.6,41.2z
		 M40.4,44.3L40.4,44.3c-1.4,0-2.6-0.8-3.3-2c-0.3-0.6-0.5-1.2-0.5-1.8c0-2.1,1.7-3.7,3.7-3.7c0.6,0,1.2,0.2,1.8,0.5
		c1.2,0.7,2,1.9,2,3.3C44.1,42.7,42.4,44.3,40.4,44.3z"/>
	<path class="st0" d="M36.2,83.9v13.6c0,1.2,1,2.2,2.2,2.2h11.4c1.2,0,2.2-1,2.2-2.2V86.1c0-1.2-1-2.2-2.2-2.2H36.2z M47.1,94.7
		h-5.9v-5.9h5.9V94.7z"/>
	<path class="st0" d="M8.2,64.6c-4.5,0-8.2,3.7-8.2,8.2C0,77.3,3.7,81,8.2,81s8.2-3.7,8.2-8.2S12.7,64.6,8.2,64.6z M8.2,76.2
		c-1.9,0-3.4-1.5-3.4-3.4s1.5-3.4,3.4-3.4s3.4,1.5,3.4,3.4S10,76.2,8.2,76.2z"/>
	<circle class="st0" cx="62.3" cy="18.9" r="3.4"/>
</g>
</svg>
