<?xml version="1.0" encoding="utf-8"?>
<!-- Generator: Adobe Illustrator 21.0.0, SVG Export Plug-In . SVG Version: 6.00 Build 0)  -->
<svg version="1.1" id="Layer_1" xmlns="http://www.w3.org/2000/svg" xmlns:xlink="http://www.w3.org/1999/xlink" x="0px" y="0px"
	 viewBox="0 0 100 100" style="enable-background:new 0 0 100 100;" xml:space="preserve">
<style type="text/css">
	.st0{fill:#FFFFFF;}
</style>
<g>
	<g>
		<circle class="st0" cx="50.5" cy="59.7" r="2.4"/>
	</g>
	<g>
		<g>
			<path class="st0" d="M69.9,28.6c1-1,1-2.7,0-3.7l-1.8-1.8l-4.3-4.3c-1-1-2.7-1-3.7,0l0,0c-1,1-1,2.7,0,3.7l4.3,4.3L60.1,31
				c-1,1-1,2.7,0,3.7l0,0c1,1,2.7,1,3.7,0l4.3-4.3l0,0L69.9,28.6z"/>
		</g>
		<g>
			<path class="st0" d="M31,28.6c-1-1-1-2.7,0-3.7l1.8-1.8l4.3-4.3c1-1,2.7-1,3.7,0l0,0c1,1,1,2.7,0,3.7l-4.3,4.3l4.3,4.3
				c1,1,1,2.7,0,3.7l0,0c-1,1-2.7,1-3.7,0l-4.3-4.3l0,0L31,28.6z"/>
		</g>
		<g>
			<path class="st0" d="M52.7,20.2l1.3,0.6c0.9,0.4,1.3,1.6,0.9,2.5l-4.3,9.2c-0.4,0.9-1.6,1.3-2.5,0.9l-1.3-0.6
				c-0.9-0.4-1.3-1.6-0.9-2.5l4.3-9.2C50.7,20.1,51.8,19.7,52.7,20.2z"/>
		</g>
	</g>
	<path class="st0" d="M92.5,0H8.4C4.3,0,0.9,3.4,0.9,7.5v13.3c0,1.5,1.2,2.7,2.7,2.7l0,0c1.5,0,2.7-1.2,2.7-2.7V7.5
		c0-1.2,0.9-2.1,2.1-2.1h84.1c1.2,0,2.1,0.9,2.1,2.1v40.8H6.3v-7.1c0-1.5-1.2-2.7-2.7-2.7l0,0c-1.5,0-2.7,1.2-2.7,2.7v22.4
		c0,4.1,3.4,7.5,7.5,7.5h31.1l-0.7,6.5c-0.6,2.1-2.5,3.6-4.7,3.6c-1.3,0-2.6,1-2.7,2.4c-0.2,1.6,1.1,3,2.7,3h32.7
		c1.4,0,2.7-1,2.8-2.4c0.2-1.6-1.1-3-2.7-3c-2.2,0-4.1-1.5-4.7-3.6l-0.7-6.5h31.1c4.1,0,7.5-3.4,7.5-7.5V7.5C100,3.4,96.6,0,92.5,0z
		 M43.1,81.2c0.4-0.8,0.7-1.6,0.9-2.5c0-0.1,0-0.2,0.1-0.3l0.8-7.3H56l0.8,7.3c0,0.1,0,0.2,0.1,0.3c0.2,0.9,0.5,1.7,0.9,2.5H43.1z
		 M94.6,63.6c0,1.2-0.9,2.1-2.1,2.1H58.4H42.5H8.4c-1.2,0-2.1-0.9-2.1-2.1v-9.9h88.3C94.6,53.7,94.6,63.6,94.6,63.6z"/>
	<circle class="st0" cx="3.3" cy="31.1" r="3.3"/>
</g>
</svg>
