<?xml version="1.0" encoding="utf-8"?>
<!-- Generator: Adobe Illustrator 21.0.0, SVG Export Plug-In . SVG Version: 6.00 Build 0)  -->
<svg version="1.1" id="Layer_1" xmlns="http://www.w3.org/2000/svg" xmlns:xlink="http://www.w3.org/1999/xlink" x="0px" y="0px"
	 viewBox="0 0 100 100" style="enable-background:new 0 0 100 100;" xml:space="preserve">
<style type="text/css">
	.st0{fill:#FFFFFF;}
</style>
<g>
	<g>
		<path class="st0" d="M46.3,46.9c1.1-1.1,1.1-3,0-4.1l-2.1-2.1l-4.8-4.8c-1.1-1.1-3-1.1-4.1,0l0,0c-1.1,1.1-1.1,3,0,4.1l4.8,4.8
			l-4.8,4.8c-1.1,1.1-1.1,3,0,4.1l0,0c1.1,1.1,3,1.1,4.1,0l4.8-4.8l0,0L46.3,46.9z"/>
		<path class="st0" d="M65.6,50.6v2.1c0,1-0.8,1.9-1.9,1.9H51.9c-1,0-1.9-0.8-1.9-1.9v-2.1c0-1,0.8-1.9,1.9-1.9h11.8
			C64.7,48.8,65.6,49.6,65.6,50.6z"/>
	</g>
	<g>
		<circle class="st0" cx="20.5" cy="61.2" r="3"/>
		<circle class="st0" cx="50" cy="85.4" r="3"/>
		<path class="st0" d="M82.3,8.8c0.1-1.2-0.1-2.3-0.6-3.4s-1.2-2.1-2-2.8S78.1,1.1,77,0.7C75.9,0.2,74.7,0,73.6,0H26.5
			c-1.2,0-2.3,0.2-3.4,0.7C22,1.1,21,1.8,20.2,2.5s-1.4,1.7-2,2.8c-0.5,1.1-0.7,2.2-0.6,3.4l-0.1,42.4c0,1.6,1.3,3,2.9,3
			s3-1.3,2.9-3l-0.1-27.8h53.3l-0.2,47.1H41.9H23.6h-6v20.7c0.1,1.2,0.4,2.3,0.8,3.4s1,2.1,2,2.8c0.9,0.8,1.9,1.4,2.8,1.9
			c1,0.5,2.2,0.7,3.6,0.7h46.7c1.4,0,2.6-0.2,3.6-0.7s1.9-1.1,2.8-1.9s1.6-1.7,2-2.8s0.6-2.2,0.8-3.4L82.3,8.8z M76.5,90.9
			c0,1.7-1.4,3.1-3.1,3.1H26.6c-1.7,0-3.1-1.4-3.1-3.1V76.6h53V90.9z M76.8,17.6H23.3V8.9c0-1.7,1.4-3.1,3.1-3.1h47.3
			c1.7,0,3.1,1.4,3.1,3.1C76.8,8.9,76.8,17.6,76.8,17.6z"/>
	</g>
</g>
</svg>
