<?xml version="1.0" encoding="utf-8"?>
<!-- Generator: Adobe Illustrator 21.0.0, SVG Export Plug-In . SVG Version: 6.00 Build 0)  -->
<svg version="1.1" id="Layer_1" xmlns="http://www.w3.org/2000/svg" xmlns:xlink="http://www.w3.org/1999/xlink" x="0px" y="0px"
	 viewBox="0 0 552 388" style="enable-background:new 0 0 552 388;" xml:space="preserve">
<style type="text/css">
	.st0{fill:#CEE6FE;}
	.st1{fill:#0982F9;}
	.st2{opacity:0.2;fill:#0982F9;}
</style>
<path class="st0" d="M272.2,16.8c-0.6,0-1,0.4-1,1s0.4,1,1,1h7h13.4h6.4c0.6,0,1-0.4,1-1s-0.4-1-1-1h-5.4v-4.8h5.4c0.6,0,1-0.4,1-1
	s-0.4-1-1-1h-6.4h-6V2.2c0-0.6-0.4-1-1-1s-1,0.4-1,1v7.8h-5.4h-7c-0.6,0-1,0.4-1,1s0.4,1,1,1h6v4.8H272.2z M280.2,11.9h11.4v4.8
	h-11.4V11.9z"/>
<path class="st1" d="M57.4,78.5H123c0.6,0,1-0.4,1-1v-39c0-0.6-0.4-1-1-1H57.4c-0.6,0-1,0.4-1,1v39C56.4,78,56.9,78.5,57.4,78.5z
	 M58.4,39.5H122v37H58.4V39.5z"/>
<path class="st1" d="M113,47.5H67.4c-0.6,0-1,0.4-1,1V58v9.5c0,0.6,0.4,1,1,1h45.5h0c0.6,0,1-0.4,1-1v-19
	C114,47.9,113.5,47.5,113,47.5z M68.4,66.5V59h3.8v2c0,0.6,0.4,1,1,1h3v0.8c0,0.6,0.4,1,1,1h4.2c0.6,0,1-0.4,1-1v-6.1h3.8v2.8
	c0,0.6,0.4,1,1,1h4.9c0.6,0,1-0.4,1-1v-5.3h2.4v8.6c0,0.6,0.4,1,1,1h3.3c0.6,0,1-0.4,1-1v-5.7h1.1v1.7c0,0.6,0.4,1,1,1h2.7
	c0.6,0,1-0.4,1-1v-4.6h3.2c0.6,0,1-0.4,1-1v-0.4h1.1v13.7H68.4z M109.8,50.8c-0.6,0-1,0.4-1,1v0.4h-3.2c-0.6,0-1,0.4-1,1v4.6h-0.7
	v-1.7c0-0.6-0.4-1-1-1h-3.1c-0.6,0-1,0.4-1,1v5.7h-1.3v-8.6c0-0.6-0.4-1-1-1h-4.4c-0.6,0-1,0.4-1,1v5.3h-2.9v-2.8c0-0.6-0.4-1-1-1
	h-5.8c-0.6,0-1,0.4-1,1v6.1h-2.2V61c0-0.6-0.4-1-1-1h-3v-2c0-0.6-0.4-1-1-1h-4.8v-7.5H112v1.3H109.8z"/>
<path class="st1" d="M198.5,206.9c0.1-0.5-0.2-1.1-0.7-1.2c-0.5-0.1-1.1,0.2-1.2,0.7c-2.3,9.7-1,18.4,3.8,24.4
	c4.7,5.9,12.2,9,21.8,9h65.6c9.6,0,17.1-3.1,21.8-9c0.3-0.4,0.3-1.1-0.2-1.4c-0.4-0.3-1.1-0.3-1.4,0.2c-4.3,5.4-11.3,8.3-20.2,8.3
	h-65.6c-9,0-16-2.9-20.2-8.3C197.5,224.1,196.3,216,198.5,206.9z"/>
<path class="st1" d="M306.8,193.8c0.3,0.7,0.6,1.3,0.8,2c0.5,1.3,1,2.6,1.5,3.8c0.2,0.7,0.5,1.3,0.7,2c0.7,2,1.2,3.8,1.6,5.4
	c0.8,3.4,1.2,6.7,1,9.8c0,0.5,0.4,1,0.9,1c0,0,0,0,0,0c0.5,0,1-0.4,1-0.9c0.1-3.3-0.2-6.7-1.1-10.3c-0.4-1.5-0.9-3.2-1.4-5
	c-0.2-0.6-0.4-1.3-0.7-2c-0.4-1.2-0.9-2.5-1.5-3.8c-0.3-0.6-0.5-1.3-0.8-2c-0.4-0.9-0.8-1.9-1.3-2.9c-0.2-0.5-0.8-0.7-1.3-0.5
	c-0.5,0.2-0.7,0.8-0.5,1.3C306.2,192.4,306.5,193.1,306.8,193.8z"/>
<path class="st1" d="M73.2,237.3h49.2c0.6,0,1-0.4,1-1v-24.6c0-0.6-0.4-1-1-1H73.2c-0.6,0-1,0.4-1,1v24.6
	C72.2,236.8,72.7,237.3,73.2,237.3z M74.2,212.7h47.2v22.6H74.2V212.7z"/>
<path class="st1" d="M109.2,221.1H86.5c-2.7,0-4.9,2.2-4.9,4.9c0,0.6,0.4,1,1,1H113c0.6,0,1-0.4,1-1
	C114,223.2,111.9,221.1,109.2,221.1z M83.8,224.9c0.4-1.1,1.5-1.9,2.7-1.9h22.6c1.2,0,2.3,0.8,2.7,1.9H83.8z"/>
<path class="st1" d="M122.5,256H73.2c-0.6,0-1,0.4-1,1v24.6c0,0.6,0.4,1,1,1h49.2c0.6,0,1-0.4,1-1V257
	C123.5,256.5,123,256,122.5,256z M121.5,280.6H74.2V258h47.2V280.6z"/>
<path class="st1" d="M82.7,272.2H113c0.6,0,1-0.4,1-1c0-2.7-2.2-4.9-4.9-4.9H86.5c-2.7,0-4.9,2.2-4.9,4.9
	C81.7,271.8,82.1,272.2,82.7,272.2z M86.5,268.4h22.6c1.2,0,2.3,0.8,2.7,1.9h-28C84.2,269.1,85.3,268.4,86.5,268.4z"/>
<path class="st1" d="M531.9,285.8c-0.5-0.1-1.1,0.3-1.1,0.9l-5.7,42.6h-32c-0.6,0-1,0.4-1,1s0.4,1,1,1H526c0.5,0,0.9-0.4,1-0.9
	l5.8-43.4C532.9,286.4,532.5,285.9,531.9,285.8z"/>
<path class="st1" d="M401.3,102.6c15.9,0,28.8-12.9,28.8-28.8S417.2,45,401.3,45S372.5,58,372.5,73.8S385.5,102.6,401.3,102.6z
	 M401.3,47c14.8,0,26.8,12,26.8,26.8s-12,26.8-26.8,26.8s-26.8-12-26.8-26.8S386.6,47,401.3,47z"/>
<path class="st1" d="M401.3,97.5c13,0,23.7-10.6,23.7-23.7s-10.6-23.7-23.7-23.7s-23.7,10.6-23.7,23.7S388.3,97.5,401.3,97.5z
	 M401.3,52.2c11.9,0,21.7,9.7,21.7,21.7s-9.7,21.7-21.7,21.7c-11.9,0-21.7-9.7-21.7-21.7S389.4,52.2,401.3,52.2z"/>
<path class="st1" d="M405.6,80.2c0.3,0.3,0.7,0.4,1.1,0.4s0.8-0.1,1.1-0.4c0.6-0.6,0.6-1.5,0-2.1l-5.3-5.3c0,0,0,0-0.1,0V58.9
	c0-0.6-0.4-1-1-1s-1,0.4-1,1v13.8c0,0,0,0-0.1,0c-0.6,0.6-0.6,1.5,0,2.1L405.6,80.2z"/>
<path class="st1" d="M409.5,90.6c-0.4-0.1-0.8-0.1-1.1,0c-0.4,0.2-0.6,0.4-0.8,0.8c-0.1,0.4-0.1,0.8,0,1.1c0.2,0.5,0.8,0.9,1.4,0.9
	c0.2,0,0.4,0,0.6-0.1c0.4-0.1,0.6-0.4,0.8-0.8c0.1-0.4,0.1-0.8,0-1.1C410.1,91,409.8,90.7,409.5,90.6z"/>
<path class="st1" d="M392.5,56.3c0.2,0.5,0.8,0.9,1.4,0.9c0.2,0,0.4,0,0.6-0.1c0.7-0.3,1.1-1.2,0.8-1.9c-0.3-0.7-1.2-1.1-1.9-0.8
	C392.5,54.7,392.2,55.5,392.5,56.3L392.5,56.3z"/>
<path class="st1" d="M394.5,90.6c-0.4-0.1-0.8-0.1-1.1,0c-0.4,0.2-0.6,0.4-0.8,0.8c-0.1,0.4-0.1,0.8,0,1.1c0.1,0.4,0.4,0.6,0.8,0.8
	l0,0c0.2,0.1,0.4,0.1,0.5,0.1c0.6,0,1.1-0.4,1.4-0.9c0.1-0.4,0.1-0.8,0-1.1C395.1,91.1,394.8,90.8,394.5,90.6z"/>
<path class="st1" d="M387.5,61.5c0.4,0,0.8-0.2,1-0.4c0.3-0.3,0.4-0.6,0.4-1c0-0.4-0.2-0.8-0.4-1c-0.3-0.3-0.6-0.4-1-0.4
	c0,0,0,0,0,0c-0.4,0-0.8,0.2-1,0.4c-0.3,0.3-0.4,0.6-0.4,1c0,0.4,0.2,0.8,0.4,1C386.7,61.3,387.1,61.5,387.5,61.5z"/>
<path class="st1" d="M414.2,86.6c-0.3,0.3-0.4,0.6-0.4,1c0,0.4,0.2,0.8,0.4,1c0,0,0,0,0,0v0c0.3,0.3,0.6,0.4,1,0.4
	c0.4,0,0.7-0.1,1-0.4c0.3-0.3,0.4-0.6,0.4-1s-0.2-0.8-0.4-1C415.7,86.1,414.8,86.1,414.2,86.6z"/>
<circle class="st1" cx="401.3" cy="54.2" r="1.5"/>
<path class="st1" d="M387.5,86.3L387.5,86.3c-0.4,0-0.8,0.2-1,0.4c-0.3,0.3-0.4,0.7-0.4,1c0,0.4,0.2,0.8,0.4,1
	c0.3,0.3,0.6,0.4,1,0.4c0.4,0,0.8-0.2,1-0.4c0.3-0.3,0.4-0.6,0.4-1c0-0.4-0.2-0.8-0.4-1C388.3,86.4,387.9,86.3,387.5,86.3z"/>
<path class="st1" d="M418.1,66.9c0.2,0.5,0.8,0.9,1.4,0.9c0.2,0,0.4,0,0.6-0.1c0.4-0.1,0.6-0.4,0.8-0.8c0.1-0.4,0.1-0.8,0-1.1
	c-0.3-0.8-1.2-1.1-1.9-0.8C418.1,65.3,417.8,66.1,418.1,66.9L418.1,66.9z"/>
<path class="st1" d="M420,80c-0.8-0.3-1.6,0.1-1.9,0.8c-0.1,0.4-0.1,0.8,0,1.1c0.1,0.4,0.4,0.6,0.8,0.8l0,0c0.2,0.1,0.4,0.1,0.5,0.1
	c0.6,0,1.1-0.4,1.4-0.9C421.1,81.1,420.8,80.3,420,80z"/>
<path class="st1" d="M415.2,61.4c0.4,0,0.8-0.2,1-0.4c0.6-0.6,0.6-1.5,0-2.1c-0.3-0.3-0.6-0.4-1-0.4c-0.4,0-0.8,0.2-1,0.4
	c-0.3,0.3-0.4,0.6-0.4,1c0,0.4,0.1,0.8,0.4,1C414.4,61.3,414.8,61.4,415.2,61.4z"/>
<path class="st1" d="M401.4,92c-0.8,0-1.5,0.7-1.5,1.5c0,0.8,0.7,1.5,1.5,1.5c0.8,0,1.5-0.7,1.5-1.5C402.9,92.6,402.2,92,401.4,92z"
	/>
<path class="st1" d="M408.3,57.1c0.2,0.1,0.4,0.1,0.6,0.1c0.6,0,1.1-0.4,1.4-0.9c0.1-0.4,0.1-0.8,0-1.1c-0.2-0.4-0.4-0.6-0.8-0.8
	c-0.8-0.3-1.6,0-1.9,0.8C407.2,55.9,407.5,56.8,408.3,57.1z"/>
<path class="st1" d="M419.5,73.8c0,0.4,0.2,0.8,0.4,1c0.3,0.3,0.6,0.4,1,0.4c0.9,0,1.5-0.7,1.5-1.5c0-0.4-0.2-0.8-0.4-1
	c-0.3-0.3-0.6-0.4-1-0.4C420.2,72.4,419.5,73,419.5,73.8z"/>
<path class="st1" d="M383.8,80.1c-0.4-0.1-0.8-0.1-1.1,0c-0.4,0.1-0.6,0.4-0.8,0.8c-0.1,0.4-0.1,0.8,0,1.1c0.2,0.5,0.8,0.9,1.4,0.9
	c0.2,0,0.4,0,0.6-0.1c0.4-0.1,0.6-0.4,0.8-0.8c0.2-0.4,0.2-0.8,0-1.1C384.5,80.5,384.2,80.2,383.8,80.1z"/>
<path class="st1" d="M382.7,67.7c0.2,0.1,0.4,0.1,0.6,0.1c0.6,0,1.1-0.4,1.4-0.9c0.3-0.7,0-1.6-0.8-1.9c-0.4-0.2-0.8-0.2-1.1,0
	c-0.4,0.2-0.7,0.4-0.8,0.8c-0.1,0.4-0.1,0.8,0,1.1C382,67.3,382.3,67.5,382.7,67.7z"/>
<path class="st1" d="M383.2,73.9c0-0.8-0.7-1.5-1.5-1.5c-0.8,0-1.5,0.6-1.5,1.5v0c0,0.8,0.7,1.5,1.5,1.5S383.2,74.7,383.2,73.9z"/>
<path class="st1" d="M226.7,102.8c-0.4-0.4-1-0.4-1.4,0c-0.4,0.4-0.4,1,0,1.4l9.4,9.4c0.2,0.2,0.5,0.3,0.7,0.3s0.5-0.1,0.7-0.3
	c0.4-0.4,0.4-1,0-1.4L226.7,102.8z"/>
<path class="st1" d="M251.3,102.8c-0.4-0.4-1-0.4-1.4,0c-0.4,0.4-0.4,1,0,1.4l9.4,9.4c0.2,0.2,0.5,0.3,0.7,0.3s0.5-0.1,0.7-0.3
	c0.4-0.4,0.4-1,0-1.4L251.3,102.8z"/>
<path class="st1" d="M259.1,98.2c-0.4-0.4-1-0.4-1.4,0c-0.4,0.4-0.4,1,0,1.4l18.4,18.4c0.2,0.2,0.5,0.3,0.7,0.3s0.5-0.1,0.7-0.3
	c0.4-0.4,0.4-1,0-1.4L259.1,98.2z"/>
<path class="st1" d="M276.5,103.4c-0.4-0.4-1-0.4-1.4,0c-0.4,0.4-0.4,1,0,1.4l8.1,8.1c0.2,0.2,0.5,0.3,0.7,0.3s0.5-0.1,0.7-0.3
	c0.4-0.4,0.4-1,0-1.4L276.5,103.4z"/>
<path class="st1" d="M231.4,95.2c-0.4-0.4-1-0.4-1.4,0c-0.4,0.4-0.4,1,0,1.4l24.5,24.5c0.2,0.2,0.5,0.3,0.7,0.3s0.5-0.1,0.7-0.3
	c0.4-0.4,0.4-1,0-1.4L231.4,95.2z"/>
<path class="st1" d="M424,307.4h10c0.6,0,1-0.4,1-1v-10.7c0-0.6-0.4-1-1-1s-1,0.4-1,1v9.7h-9c-0.6,0-1,0.4-1,1
	S423.5,307.4,424,307.4z"/>
<path class="st1" d="M150.7,235.3c-0.6,0-1,0.4-1,1v29.2c0,0.6,0.4,1,1,1s1-0.4,1-1v-29.2C151.7,235.7,151.2,235.3,150.7,235.3z"/>
<path class="st2" d="M491.9,114.8c-0.6,0-1,0.4-1,1s0.4,1,1,1h7h13.4h6.4c0.6,0,1-0.4,1-1s-0.4-1-1-1h-5.4v-4.8h5.4c0.6,0,1-0.4,1-1
	s-0.4-1-1-1h-6.4h-6v-7.8c0-0.6-0.4-1-1-1s-1,0.4-1,1v7.8h-5.4h-7c-0.6,0-1,0.4-1,1s0.4,1,1,1h6v4.8H491.9z M499.9,109.9h11.4v4.8
	h-11.4V109.9z"/>
<path class="st2" d="M117.6,112.2v-7.8c0-0.6-0.4-1-1-1s-1,0.4-1,1v7.8h-5.4h-7c-0.6,0-1,0.4-1,1s0.4,1,1,1h6v4.8h-6
	c-0.6,0-1,0.4-1,1s0.4,1,1,1h7h13.4h6.4c0.6,0,1-0.4,1-1s-0.4-1-1-1h-5.4v-4.8h5.4c0.6,0,1-0.4,1-1s-0.4-1-1-1h-6.4H117.6z
	 M122.6,119.1h-11.4v-4.8h11.4V119.1z"/>
<path class="st2" d="M498,226c-0.6,0-1,0.4-1,1s0.4,1,1,1h7h13.4h6.4c0.6,0,1-0.4,1-1s-0.4-1-1-1h-5.4v-4.8h5.4c0.6,0,1-0.4,1-1
	s-0.4-1-1-1h-6.4h-6v-7.8c0-0.6-0.4-1-1-1s-1,0.4-1,1v7.8h-5.4h-7c-0.6,0-1,0.4-1,1s0.4,1,1,1h6v4.8H498z M505.9,221.1h11.4v4.8
	h-11.4V221.1z"/>
<path class="st2" d="M11.3,270.3c-0.6,0-1,0.4-1,1s0.4,1,1,1h7h13.4H38c0.6,0,1-0.4,1-1s-0.4-1-1-1h-5.4v-4.8H38c0.6,0,1-0.4,1-1
	s-0.4-1-1-1h-6.4h-6v-7.8c0-0.6-0.4-1-1-1s-1,0.4-1,1v7.8h-5.4h-7c-0.6,0-1,0.4-1,1s0.4,1,1,1h6v4.8H11.3z M19.2,265.4h11.4v4.8
	H19.2V265.4z"/>
<path class="st1" d="M326.1,162.5c1.9,0,3.4-1.5,3.4-3.4c0-1.9-1.5-3.4-3.4-3.4s-3.4,1.5-3.4,3.4C322.7,161,324.3,162.5,326.1,162.5
	z M326.1,157.7c0.8,0,1.4,0.6,1.4,1.4c0,0.8-0.6,1.4-1.4,1.4s-1.4-0.6-1.4-1.4C324.7,158.3,325.4,157.7,326.1,157.7z"/>
<g>
	<path class="st1" d="M390.4,78.7c-0.2,0-0.4-0.1-0.5-0.3c-0.1-0.3,0-0.5,0.3-0.7l11-4.5c0.3-0.1,0.5,0,0.7,0.3
		c0.1,0.3,0,0.5-0.3,0.7l-11,4.5C390.5,78.7,390.4,78.7,390.4,78.7z"/>
</g>
<path class="st1" d="M145.2,161.5v33h2v-34c0-0.6-0.4-1-1-1h-2.5v2H145.2z"/>
<path class="st1" d="M118.7,159.5h3.1V159c0-0.3,0-0.6,0.1-0.8h-3.3c0.1,0.3,0.1,0.5,0.1,0.8V159.5z"/>
<path class="st1" d="M139.2,159.5h4.4v-0.4c0-0.6-0.4-1-1-1h-3.6c0.1,0.3,0.1,0.5,0.1,0.8V159.5z"/>
<rect x="141.7" y="161.5" class="st1" width="2" height="33"/>
<path class="st1" d="M129,159.5h3.1V159c0-0.3,0-0.6,0.1-0.8h-3.3c0.1,0.3,0.1,0.5,0.1,0.8V159.5z"/>
<path class="st1" d="M127,162c0,0.9-0.7,1.6-1.6,1.6s-1.6-0.7-1.6-1.6v-0.5h-2v0.5c0,2,1.6,3.6,3.6,3.6s3.6-1.6,3.6-3.6v-0.5h-2V162
	z"/>
<path class="st1" d="M125.4,157.4c0.6,0,1.1,0.3,1.3,0.8h2.1c-0.4-1.6-1.8-2.8-3.5-2.8s-3.1,1.2-3.5,2.8h2.1
	C124.3,157.7,124.8,157.4,125.4,157.4z"/>
<rect x="127" y="160.1" class="st1" width="2" height="1.4"/>
<rect x="121.8" y="160.1" class="st1" width="2" height="1.4"/>
<path class="st1" d="M121.8,159.5h2V159c0-0.3,0.1-0.6,0.2-0.8h-2.1c-0.1,0.3-0.1,0.5-0.1,0.8V159.5z"/>
<path class="st1" d="M127,159v0.5h2V159c0-0.3,0-0.6-0.1-0.8h-2.1C126.9,158.4,127,158.6,127,159z"/>
<rect x="121.8" y="159.5" class="st1" width="2" height="0.6"/>
<rect x="127" y="159.5" class="st1" width="2" height="0.6"/>
<path class="st1" d="M135.6,157.4c0.6,0,1.1,0.3,1.3,0.8h2.1c-0.4-1.6-1.8-2.8-3.5-2.8s-3.1,1.2-3.5,2.8h2.1
	C134.6,157.7,135.1,157.4,135.6,157.4z"/>
<path class="st1" d="M135.6,163.6c-0.9,0-1.6-0.7-1.6-1.6v-0.5h-2v0.5c0,2,1.6,3.6,3.6,3.6s3.6-1.6,3.6-3.6v-0.5h-2v0.5
	C137.2,162.9,136.5,163.6,135.6,163.6z"/>
<rect x="137.2" y="160.1" class="st1" width="2" height="1.4"/>
<rect x="132.1" y="160.1" class="st1" width="2" height="1.4"/>
<path class="st1" d="M137.2,159v0.5h2V159c0-0.3,0-0.6-0.1-0.8H137C137.1,158.4,137.2,158.6,137.2,159z"/>
<path class="st1" d="M132.1,159.5h2V159c0-0.3,0.1-0.6,0.2-0.8h-2.1c-0.1,0.3-0.1,0.5-0.1,0.8V159.5z"/>
<rect x="137.2" y="159.5" class="st1" width="2" height="0.6"/>
<rect x="132.1" y="159.5" class="st1" width="2" height="0.6"/>
<polygon class="st1" points="141.7,159.5 141.7,160.1 141.7,161.5 143.7,161.5 143.7,159.5 "/>
<g>
	<path class="st1" d="M78.3,160.1h1.6h0.9v1.9c0,1,0.4,1.9,1,2.5c0.7,0.7,1.6,1.1,2.6,1.1c2,0,3.6-1.6,3.6-3.6v-0.5v-1.4v-0.6H91
		v0.6v1.4v0.5c0,2,1.6,3.6,3.6,3.6s3.6-1.6,3.6-3.6v-0.5v-1.4v-0.6h3.1v0.6v1.4v0.5c0,2,1.6,3.6,3.6,3.6s3.6-1.6,3.6-3.6v-0.5v-1.4
		v-0.6h3.1v0.6v1.4v0.5c0,2,1.6,3.6,3.6,3.6c2,0,3.6-1.6,3.6-3.6v-0.5v-1.4v-0.6V159c0-0.3,0-0.6-0.1-0.8c-0.4-1.6-1.8-2.8-3.5-2.8
		c-1.7,0-3.1,1.2-3.5,2.8h-3.3c-0.4-1.6-1.8-2.8-3.5-2.8s-3.1,1.2-3.5,2.8h-3.3c-0.4-1.6-1.8-2.8-3.5-2.8s-3.1,1.2-3.5,2.8h-3.3
		c-0.4-1.6-1.8-2.8-3.5-2.8c-1.7,0-3.1,1.2-3.5,2.8h-3.6c-0.6,0-1,0.4-1,1v35.4h2V160.1z M115.1,157.4c0.6,0,1.1,0.3,1.3,0.8
		c0.2,0.2,0.2,0.5,0.2,0.8v0.5v0.6v1.4v0.5c0,0.9-0.7,1.6-1.6,1.6s-1.6-0.7-1.6-1.6v-0.5v-1.4v-0.6V159c0-0.3,0.1-0.6,0.2-0.8
		C114.1,157.7,114.6,157.4,115.1,157.4z M104.9,157.4c0.6,0,1.1,0.3,1.3,0.8c0.2,0.2,0.2,0.5,0.2,0.8v0.5v0.6v1.4v0.5
		c0,0.9-0.7,1.6-1.6,1.6s-1.6-0.7-1.6-1.6v-0.5v-1.4v-0.6V159c0-0.3,0.1-0.6,0.2-0.8C103.8,157.7,104.3,157.4,104.9,157.4z
		 M94.6,157.4c0.6,0,1.1,0.3,1.3,0.8c0.2,0.2,0.2,0.5,0.2,0.8v0.5v0.6v1.4v0.5c0,0.9-0.7,1.6-1.6,1.6S93,162.9,93,162v-0.5v-1.4
		v-0.6V159c0-0.3,0.1-0.6,0.2-0.8C93.6,157.7,94,157.4,94.6,157.4z M85.7,158.1c0.2,0.2,0.2,0.5,0.2,0.8v0.5v0.6v1.4v0.5
		c0,0.9-0.7,1.6-1.6,1.6s-1.6-0.7-1.6-1.6v-0.5v-1.4v-0.6V159c0-0.3,0.1-0.6,0.2-0.8H85.7z"/>
	<polygon class="st1" points="105.8,172.8 105.8,170.9 99.9,170.9 99.9,178.3 102.3,178.3 102.3,175.9 105.5,175.9 105.5,174 
		102.3,174 102.3,172.8 	"/>
	<polygon class="st1" points="112.7,176.4 108.9,176.4 108.9,175.5 112.3,175.5 112.3,173.7 108.9,173.7 108.9,172.8 112.7,172.8 
		112.7,170.9 106.5,170.9 106.5,178.3 112.7,178.3 	"/>
	<path class="st1" d="M113.7,170.9v7.3h3.9c1.8,0,2.9-0.8,2.9-2.1c0-0.9-0.6-1.7-1.5-1.9c0.8-0.2,1.2-0.8,1.2-1.6
		c0-1.1-1.1-1.9-2.9-1.9H113.7z M117.2,176.5h-1.2v-1.1h1.2c0.4,0,0.7,0.2,0.7,0.5C118,176.3,117.7,176.5,117.2,176.5z M117.8,173.2
		c0,0.3-0.2,0.5-0.6,0.5h-1.2v-1h1.2C117.6,172.7,117.8,172.9,117.8,173.2z"/>
	<polygon class="st1" points="107.8,188 107.8,180.7 105.1,180.7 105.1,181.8 106.6,181.8 106.6,188 	"/>
	<polygon class="st1" points="111.8,188 114.8,181.6 114.8,180.7 109.4,180.7 109.4,182.8 110.5,182.8 110.5,181.8 113.4,181.8 
		110.5,188 	"/>
	<path class="st1" d="M548.7,333h-18.3l7.7-54.3c0.4-0.1,0.7-0.5,0.7-0.9v-4.1c0-0.1,0-0.1,0-0.2c0-0.1,0-0.1,0-0.2
		c0-0.1-0.1-0.1-0.1-0.2c0,0,0-0.1-0.1-0.1c0,0,0,0,0,0c-0.1-0.1-0.1-0.1-0.2-0.2c0,0-0.1,0-0.1-0.1c-0.1-0.1-0.3-0.1-0.4-0.1h-4.2
		l-3.9-9.4c-0.2-0.4-0.6-0.7-1-0.6l-9,0.8l-2.4-3.2c-0.3-0.4-0.8-0.5-1.2-0.3l-5.3,2.5l-3.2-3.5c-0.3-0.3-0.8-0.4-1.2-0.2l-6.5,3.3
		v-1.1c0-0.3-0.2-0.7-0.5-0.8c-0.3-0.2-0.7-0.2-1,0l-5.2,2.6l-4.8-1.4c-0.3-0.1-0.5,0-0.8,0.1l-9.4,5.5c-0.2,0.1-0.4,0.4-0.5,0.7
		s0,0.6,0.2,0.8l3.3,4.4h-5.4c-0.1,0-0.3,0-0.4,0.1c0,0-0.1,0-0.1,0.1c-0.1,0-0.2,0.1-0.2,0.2c0,0,0,0,0,0c0,0,0,0.1-0.1,0.1
		c0,0.1-0.1,0.1-0.1,0.2c0,0.1,0,0.1,0,0.2c0,0.1,0,0.1,0,0.2v4.1c0,0.4,0.3,0.8,0.7,0.9l7.7,54.3h-30.4V202.3h15.5c0.6,0,1-0.4,1-1
		v-5.8c0-0.6-0.4-1-1-1h-26.9l1.7-10.1c0.1-0.3,0-0.6-0.2-0.8s-0.5-0.4-0.8-0.4h-5.8v-2.8h5c0.6,0,1-0.4,1-1v-9.7
		c0-1.3-1.1-2.4-2.4-2.4c-1.3,0-2.4,1.1-2.4,2.4v5.3h-1.1v-12c0-1.7-1.4-3.1-3.1-3.1s-3.1,1.4-3.1,3.1v7h-0.8v-1.6
		c0-1.3-1.1-2.4-2.4-2.4c-1.3,0-2.4,1.1-2.4,2.4v5.7c0,0.6,0.4,1,1,1h4.7v8h-4.5c-0.3,0-0.6,0.1-0.8,0.4c-0.2,0.2-0.3,0.5-0.2,0.8
		l1.7,10.1h-15.2l2.1-23.9h0.1c1.5,0,2.8-1.3,2.8-2.8s-1.3-2.8-2.8-2.8h-2l0.4-2.6l2.7-19.6c0-0.1,0-0.3,0-0.4
		c0-0.1-0.1-0.2-0.2-0.3c-0.1-0.1-0.2-0.2-0.3-0.3c-0.1-0.1-0.2-0.1-0.4-0.1l0,0l0.6-4.1c0-0.3,0-0.5-0.2-0.7
		c-0.2-0.2-0.4-0.3-0.7-0.4l-2.4-0.3c-0.3,0-0.5,0-0.7,0.2c-0.2,0.2-0.3,0.4-0.4,0.7L409,141l0,0c-0.1,0-0.2,0-0.3,0
		c-0.1,0-0.2-0.1-0.3-0.1l-1.9-0.3c-0.3,0-0.5,0-0.7,0.2c-0.2,0.2-0.4,0.4-0.4,0.7l-2.3,17.2c-0.1,0.5,0.3,1.1,0.9,1.1
		c0,0,0.1,0,0.1,0c0.5,0,0.9-0.4,1-0.9l2.2-16.2l0.4,0.1l-2.5,18.6l-0.5,3.5h-7.1l-2.4-16.8v0l-0.3-2.1v0l-0.4-2.5
		c-0.3-1.8-1.9-3-3.7-2.7c-0.9,0.1-1.6,0.6-2.1,1.3c-0.5,0.7-0.7,1.5-0.6,2.4l0.4,2.5v0l0.3,2.1c0,0,0,0,0,0l2.3,15.9h-1.9
		c-1.5,0-2.8,1.3-2.8,2.8s1.3,2.8,2.8,2.8h0.1l2.3,23.9h-30.4c-0.1-1.6-0.7-3-1.4-4.3c0,0,0,0,0,0c0,0,0,0,0,0
		c-1.4-2.3-3.5-4-6.1-4.7c-0.1-1.6-1.4-2.9-3-2.9c-1.6,0-2.8,1.2-3,2.7c-4.4,1-7.7,4.7-8.2,9.2h-18.8c1.2-1.2,2-2.9,2-4.8
		c0-0.6-0.4-1-1-1H310c-3-6.5-6.9-13.5-11.2-20.3h28.1c8,0,14.4-6.5,14.4-14.4v-5.5v-72c0-8-6.5-14.4-14.4-14.4h-144
		c-8,0-14.4,6.5-14.4,14.4v72v5.5c0,8,6.5,14.4,14.4,14.4H211c-4.4,6.8-8.2,13.9-11.2,20.3h-11.6c-0.6,0-1,0.4-1,1
		c0,1.9,0.8,3.6,2,4.8h-36.1h-0.7h-2H149h-2H87.1h-2h-1.5h-2h-2.7H41.7c-0.6,0-1,0.4-1,1v5.8c0,0.6,0.4,1,1,1h14.2V333H3.3
		c-0.6,0-1,0.4-1,1s0.4,1,1,1h53.6h6h69.9h6h44.1h6.3h60.4h6.1H316h6.3h123.4h6h32.6h45h19.5c0.6,0,1-0.4,1-1S549.2,333,548.7,333z
		 M426.4,173.2v-4.7c0-0.2,0.2-0.4,0.4-0.4s0.4,0.2,0.4,0.4v2.6c0,0.6,0.4,1,1,1h2.8c0.6,0,1-0.4,1-1v-8c0-0.6,0.5-1.1,1.1-1.1
		s1.1,0.5,1.1,1.1v13c0,0.6,0.4,1,1,1h3.1c0.6,0,1-0.4,1-1v-6.3c0-0.2,0.2-0.4,0.4-0.4s0.4,0.2,0.4,0.4v8.7h-5c-0.6,0-1,0.4-1,1v3.8
		H432v-9c0-0.6-0.4-1-1-1H426.4z M431,185.2C431,185.2,431,185.2,431,185.2l4.2,0c0,0,0,0,0,0h5.6l-1.6,9.3h-10.9l-1.6-9.3H431z
		 M411,173.2h-0.8h-2h-2.3l0-1.6l0-0.9h0.1h2.5h2h0.7L411,173.2z M405.4,189.2l0.1-3.3h4.4l-0.3,3.3H405.4z M409.4,191.2l-0.3,3.3
		h-3.9l0.1-3.3H409.4z M405.5,183.8l0.1-3.3h4.7l-0.3,3.3H405.5z M407.5,178.5h-1.8l0.1-3.2l0-0.1h4c0,0,0,0,0,0c0,0,0,0,0,0h1
		l-0.3,3.3H407.5z M411.4,138.2l0.5,0.1l-0.4,3.1l-0.5-0.1L411.4,138.2z M409.5,144.8l2.5,0.3l-2.2,16l-2.5-0.3L409.5,144.8z
		 M407.1,162.8l2.5,0.3l-0.3,1.9h-2.5L407.1,162.8z M390.1,144.1c0-0.3,0-0.7,0.2-0.9s0.5-0.4,0.8-0.5c0.1,0,0.1,0,0.2,0
		c0.3,0,0.5,0.1,0.7,0.2c0.3,0.2,0.4,0.5,0.5,0.8l0.2,1.5l-2.4,0.3L390.1,144.1z M390.6,147.5l2.4-0.4l0,0.3l-2.4,0.3L390.6,147.5z
		 M390.9,149.8l2.4-0.4l2.2,15.6h-2.5L390.9,149.8z M389.2,168.6c-0.4,0-0.8-0.4-0.8-0.8s0.4-0.8,0.8-0.8h2.2h2h2.5h2h6.6h2h2.5h2
		h2.3c0.4,0,0.8,0.4,0.8,0.8s-0.4,0.8-0.8,0.8h-1h-1.5h-2h-2.5h-2h-6.1h-2h-2.5h-2h-1.4H389.2z M399.1,189.2l-0.1-3.3h4.4l-0.1,3.3
		H399.1z M403.3,191.2l-0.1,3.3h-3.9l-0.1-3.3H403.3z M399,183.8l-0.1-3.3h4.7l-0.1,3.3H399z M398.8,178.5l-0.1-3.3h5l-0.1,3.3
		H398.8z M403.6,173.2h-4.8h-0.1l0-1l0-1.6h5.3l0,0.8l-0.1,1.8H403.6z M396.9,180.5l0.1,3.3h-4.4l-0.3-3.3H396.9z M392.1,178.5
		l-0.3-3.3h1h0h2.8h0h0.8h0.4l0.1,3.3h-1.8H392.1z M397,185.8l0.1,3.3h-4.1l-0.3-3.3H397z M397.2,191.2l0.1,3.3h-3.7l-0.3-3.3H397.2
		z M391.6,173.2l-0.2-2.6h0.6h2h2.5h0.2l0,1.7l0,0.7v0l0,0.2h-1.2h0h-1.2h-2H391.6z M347.6,187.4c0.6-0.2,1.3-0.3,2-0.3
		c0.1,0,0.2,0,0.3,0h0.9c0.3,0,0.6,0,0.9,0c0.7,0.1,1.4,0.2,2,0.5c1.6,0.6,3,1.6,3.9,2.9c-1.2,0.7-2.6,1.1-4,1.1h-0.7
		c-0.6,0-1,0.4-1,1s0.4,1,1,1h0.7c1.7,0,3.5-0.5,5-1.4c0.3,0.7,0.5,1.5,0.6,2.3h-17.7C341.8,191.1,344.3,188.3,347.6,187.4z
		 M320.5,190.7c-0.5,2.2-2.4,3.8-4.7,3.8h-3.2c-0.5-1.2-1.1-2.5-1.7-3.8H320.5z M339.4,153.9c0,6.9-5.6,12.4-12.4,12.4h-29.4
		c-4-6-8.3-11.8-12.9-16.9h50.9h3.9V153.9z M282.8,147.4c-8.9-9.4-18.6-16-27.9-16s-18.9,6.5-27.9,16h-51.7v-71
		c0-4.2,3.4-7.6,7.6-7.6h144c4.2,0,7.6,3.4,7.6,7.6v71H282.8z M170.5,76.4c0-6.9,5.6-12.4,12.4-12.4h144c6.9,0,12.4,5.6,12.4,12.4
		v71h-2.9v-71c0-5.3-4.3-9.6-9.6-9.6h-144c-5.3,0-9.6,4.3-9.6,9.6v71h-2.9V76.4z M182.9,166.4c-6.9,0-12.4-5.6-12.4-12.4v-4.5h3.9
		h50.9c-4.6,5.1-8.9,10.9-12.9,16.9H182.9z M198.9,190.7c-0.6,1.3-1.1,2.6-1.7,3.8h-3.2c-2.3,0-4.3-1.6-4.7-3.8H198.9z M61.9,246.6
		V292V333h-4V202.3h4V246.6z M131.8,333H63.9V293h67.9V333z M131.8,291H63.9v-43.3h67.9V291z M131.8,245.6H63.9v-43.3h67.9V245.6z
		 M137.8,333h-4V292v-45.3v-44.3h4V333z M132.8,200.3H62.9h-6H42.7v-3.8h39.9h3.5H148h3.5h42.6h2.3c-0.5,1.3-1,2.6-1.4,3.8h-50.4
		h-5.8H132.8z M197.5,233.9c5.3,6.7,13.7,10.2,24.3,10.2h8.2l-35.6,66.3h-48.8v-108h48.7c-0.5,1.6-0.9,3-1.2,4.4
		C190.5,217.4,192.1,227.1,197.5,233.9z M182.2,333h-42.5V202.3h3.8v109c0,0.6,0.4,1,1,1h48.7L182.2,333z M188.5,333h-4l11.1-20.7
		l1.1-2l7.4-13.7l1.1-2l27.2-50.5h4l-27.2,50.5l-1.1,2l-7.4,13.7l-1.1,2L188.5,333z M248.5,333h-57.7l11.1-20.7h46.6V333z
		 M248.5,294.7v2v13.7H203l7.4-13.7l1.1-2l27.2-50.5h9.9V294.7z M254.6,294.7v2v13.7v2V333h-4.1v-20.7v-2v-13.7v-2v-50.5h4.1V294.7z
		 M249.5,242.1H238h-6.3h-9.9c-10,0-17.8-3.3-22.7-9.5c-5-6.3-6.4-15.4-4-25.5c0.4-1.5,0.8-3.1,1.4-4.8c0-0.1,0.1-0.3,0.1-0.4
		c0.1-0.2,0.2-0.4,0.2-0.6c0,0,0,0,0,0c0.1-0.3,0.2-0.6,0.3-1c0.4-1.2,0.9-2.5,1.5-3.8c0.1-0.2,0.1-0.3,0.2-0.5
		c0-0.1,0.1-0.2,0.1-0.2c0.2-0.4,0.3-0.8,0.5-1.3c0.5-1.2,1.1-2.5,1.7-3.8c0.3-0.7,0.6-1.3,0.9-2c3.1-6.5,6.9-13.5,11.3-20.3
		c0.4-0.7,0.9-1.3,1.3-2c4-6.1,8.5-11.9,13.1-16.9c0.6-0.7,1.3-1.4,1.9-2c8.2-8.3,17-14,25.3-14s17.1,5.6,25.3,14
		c0.6,0.6,1.3,1.3,1.9,2c4.7,5,9.1,10.8,13.1,16.9c0.4,0.7,0.9,1.3,1.3,2c4.4,6.8,8.2,13.8,11.3,20.3c0.3,0.7,0.6,1.3,0.9,2
		c0.6,1.3,1.1,2.6,1.7,3.8c0.2,0.4,0.3,0.8,0.5,1.2c0,0.1,0.1,0.3,0.1,0.4c0.1,0.2,0.1,0.3,0.2,0.5c0.5,1.3,1,2.6,1.5,3.8
		c0.1,0.3,0.2,0.6,0.3,1c0.1,0.2,0.2,0.4,0.2,0.7c0,0.1,0.1,0.3,0.1,0.4c0.6,1.7,1,3.4,1.4,4.8c2.4,10.1,1,19.1-4,25.5
		c-4.9,6.2-12.7,9.5-22.7,9.5h-14.7h-6.3h-11.5H249.5z M434,223.1c0.6,0,1-0.4,1-1v-19.7h3.7v108h-128l-7.8-14.5l-0.6-1.2
		l-27.2-50.6h13c10.6,0,19-3.5,24.3-10.2c5.4-6.8,7-16.5,4.4-27.2c-0.3-1.3-0.7-2.8-1.2-4.4H433v19.7
		C433,222.6,433.4,223.1,434,223.1z M293.7,294.7l1.1,2l7.4,13.7h-45.5v-13.7v-2v-50.5h9.9L293.7,294.7z M256.6,333v-20.7h46.6
		l11.1,20.7H256.6z M316.6,333l-11.1-20.7l-1.1-2l-7.4-13.7l-1.1-2l-27.2-50.5h4l27.2,50.5l1.1,2l7.4,13.7l1.1,2l11.1,20.7H316.6z
		 M444.7,333H322.9l-11.1-20.7h128c0.6,0,1-0.4,1-1v-109h3.9V333z M450.6,333h-4V202.3h4V333z M445.7,200.3h-5.9H434H314.9
		c-0.4-1.2-0.9-2.5-1.4-3.8h2.3h24.6h19.8h32.5h5.7h5.9h5.8h17.4c0,0,0,0,0,0h12.6c0,0,0,0,0,0h27v3.8h-15.5H445.7z M528.1,264.7
		l3.3,7.9h-11.3l2.2-4.5c0.2-0.3,0.1-0.7-0.1-1l-1.3-1.7L528.1,264.7z M499.7,264.3l6.7-3.4l5.5,6.1c0.2,0.2,0.5,0.3,0.7,0.3
		c0.2,0,0.5-0.1,0.7-0.3c0.4-0.4,0.4-1,0.1-1.4l-1.4-1.6l4-1.9l4.2,5.7l-2.4,4.9h-9l-9.1-5.5V264.3z M480,268l8.1-4.7l2.2,0.6
		l-1.5,0.7c-0.5,0.2-0.7,0.8-0.5,1.3c0.2,0.4,0.5,0.6,0.9,0.6c0.1,0,0.3,0,0.4-0.1l3.9-1.8c0,0,0,0,0,0c0,0,0,0,0,0l4.2-2.1v5.2v2.3
		c0,0.6,0.4,1,1,1s1-0.4,1-1v-0.5l5.3,3.2h-21.4L480,268z M476.6,276.8v-2.1h0.2h6.3h25.5h9.9l0,0c0,0,0,0,0,0h14.4c0,0,0,0,0,0l0,0
		h3.7h0.2v2.1h-0.4h-59.2H476.6z M528.3,333h-43.2l-7.7-54.3H536L528.3,333z"/>
</g>
</svg>
